<svg xmlns="http://www.w3.org/2000/svg" width="32" height="32" viewBox="0 0 32 32">
  <rect width="32" height="32" rx="8" fill="#2563eb"/>
  <path d="M16 6a2 2 0 0 1 2 2v1.07a6.97 6.97 0 0 1 2.44 1.42l.93-.54a2 2 0 0 1 2.73.73l1 1.74a2 2 0 0 1-.73 2.73l-.93.53A7.03 7.03 0 0 1 24 18c0 .78-.13 1.54-.36 2.24l.93.54a2 2 0 0 1 .73 2.73l-1 1.73a2 2 0 0 1-2.73.73l-.93-.53A6.97 6.97 0 0 1 18 26.86V28a2 2 0 0 1-4 0v-1.14a6.97 6.97 0 0 1-2.44-1.42l-.93.53a2 2 0 0 1-2.73-.73l-1-1.73a2 2 0 0 1 .73-2.73l.93-.54A7.03 7.03 0 0 1 8 18c0-.78.13-1.54.36-2.24l-.93-.53a2 2 0 0 1-.73-2.73l1-1.74a2 2 0 0 1 2.73-.73l.93.54A6.97 6.97 0 0 1 14 9.07V8a2 2 0 0 1 2-2zm0 8a4 4 0 1 0 0 8 4 4 0 0 0 0-8z" fill="white" opacity="0.95"/>
</svg>
